<svg xmlns="http://www.w3.org/2000/svg" viewBox="0 0 640 520" fill="none"><defs><filter id="s" x="-10%" y="-15%" width="120%" height="130%"><feDropShadow dx="0" dy="15" stdDeviation="14" flood-color="#1E3A8A" flood-opacity=".1"/></filter></defs><rect width="640" height="520" rx="15" fill="#F7F9FD"/><g filter="url(#s)"><rect x="47" y="49" width="546" height="422" rx="13" fill="white" stroke="#E5E7EB"/><path d="M47 94h546" stroke="#E5E7EB"/><circle cx="74" cy="72" r="4" fill="#BFDBFE"/><circle cx="89" cy="72" r="4" fill="#DBEAFE"/><rect x="118" y="66" width="98" height="11" rx="5.5" fill="#F3F4F6"/><rect x="48" y="95" width="107" height="375" fill="#F9FAFB"/><rect x="71" y="123" width="45" height="7" rx="3.5" fill="#111827"/><rect x="71" y="153" width="63" height="29" rx="6" fill="#EFF6FF"/><rect x="81" y="164" width="38" height="6" rx="3" fill="#2563EB"/><rect x="71" y="205" width="57" height="6" rx="3" fill="#9CA3AF"/><rect x="71" y="231" width="50" height="6" rx="3" fill="#D1D5DB"/><rect x="71" y="257" width="64" height="6" rx="3" fill="#D1D5DB"/><rect x="155" y="95" width="438" height="375" fill="#FCFDFE"/><rect x="181" y="124" width="94" height="8" rx="4" fill="#111827"/><rect x="181" y="149" width="129" height="6" rx="3" fill="#9CA3AF"/><rect x="181" y="182" width="116" height="91" rx="9" fill="#EFF6FF"/><rect x="316" y="182" width="116" height="91" rx="9" fill="#F5F7FB"/><rect x="451" y="182" width="116" height="91" rx="9" fill="#111827"/><rect x="199" y="202" width="48" height="6" rx="3" fill="#111827"/><rect x="199" y="224" width="72" height="18" rx="5" fill="white"/><rect x="334" y="202" width="47" height="6" rx="3" fill="#111827"/><path d="M334 247h72" stroke="#2563EB" stroke-width="4" stroke-linecap="round"/><rect x="469" y="202" width="44" height="6" rx="3" fill="white"/><rect x="469" y="225" width="67" height="6" rx="3" fill="#9CA3AF"/><rect x="181" y="300" width="386" height="139" rx="9" fill="white" stroke="#E5E7EB"/><rect x="202" y="321" width="79" height="7" rx="3.5" fill="#111827"/><path d="M203 403h340M203 378h340M203 353h340" stroke="#E5E7EB"/><path d="M232 403v-24M272 403v-43M312 403v-62M352 403v-35M392 403v-76M432 403v-52M472 403v-89" stroke="#93C5FD" stroke-width="13" stroke-linecap="round"/><path d="M232 403v-10M272 403v-28M312 403v-47M352 403v-21M392 403v-61M432 403v-37M472 403v-74" stroke="#2563EB" stroke-width="13" stroke-linecap="round"/></g></svg>
