<svg xmlns="http://www.w3.org/2000/svg" viewBox="0 0 640 520" fill="none"><defs><filter id="s" x="-15%" y="-15%" width="130%" height="130%"><feDropShadow dx="0" dy="14" stdDeviation="13" flood-color="#1E3A8A" flood-opacity=".1"/></filter></defs><rect width="640" height="520" rx="15" fill="#F7F9FD"/><g filter="url(#s)"><rect x="177" y="40" width="286" height="442" rx="29" fill="#111827"/><rect x="188" y="51" width="264" height="420" rx="21" fill="white"/><rect x="281" y="63" width="78" height="15" rx="7" fill="#111827"/><rect x="214" y="108" width="72" height="8" rx="4" fill="#9CA3AF"/><rect x="214" y="137" width="211" height="119" rx="14" fill="#111827"/><rect x="235" y="160" width="84" height="7" rx="3.5" fill="white"/><rect x="235" y="183" width="102" height="7" rx="3.5" fill="#A6C6FF"/><path d="M235 229c21-9 32-31 53-23 18 7 20-20 42-12 17 7 26-23 61-25" stroke="#60A5FA" stroke-width="3" stroke-linecap="round"/><rect x="214" y="278" width="211" height="88" rx="13" fill="#F5F7FB"/><circle cx="241" cy="307" r="13" fill="#DBEAFE"/><path d="M235 307h12M241 301v12" stroke="#2563EB" stroke-width="2"/><rect x="265" y="294" width="100" height="8" rx="4" fill="#111827"/><rect x="265" y="315" width="78" height="6" rx="3" fill="#9CA3AF"/><rect x="235" y="341" width="165" height="8" rx="4" fill="#E5E7EB"/><rect x="235" y="341" width="117" height="8" rx="4" fill="#2563EB"/><rect x="214" y="390" width="211" height="44" rx="10" fill="#2563EB"/><rect x="278" y="408" width="83" height="8" rx="4" fill="white"/></g><g filter="url(#s)"><rect x="55" y="95" width="112" height="123" rx="12" fill="white" stroke="#E5E7EB"/><rect x="75" y="118" width="57" height="7" rx="3.5" fill="#111827"/><rect x="75" y="146" width="73" height="8" rx="4" fill="#EFF6FF"/><rect x="75" y="146" width="44" height="8" rx="4" fill="#2563EB"/><rect x="75" y="178" width="46" height="7" rx="3.5" fill="#9CA3AF"/></g></svg>
